<mxfile host="65bd71144e">
    <diagram id="BP-bice16HXopispx_VL" name="Page-1">
        <mxGraphModel dx="1166" dy="583" grid="1" gridSize="10" guides="1" tooltips="1" connect="1" arrows="1" fold="1" page="1" pageScale="1" pageWidth="850" pageHeight="1100" math="0" shadow="0">
            <root>
                <mxCell id="0"/>
                <mxCell id="1" parent="0"/>
                <mxCell id="2" value="Landing Page/App.js&lt;br&gt;Nav&lt;br&gt;Login | Register&lt;br&gt;&lt;br&gt;Description of App/Purpost" style="whiteSpace=wrap;html=1;aspect=fixed;" vertex="1" parent="1">
                    <mxGeometry x="370" y="70" width="140" height="140" as="geometry"/>
                </mxCell>
                <mxCell id="3" value="SignUp.js&lt;br&gt;&lt;br&gt;UserName&lt;br&gt;Phone No.&lt;br&gt;password" style="ellipse;whiteSpace=wrap;html=1;aspect=fixed;" vertex="1" parent="1">
                    <mxGeometry x="540" y="220" width="110" height="110" as="geometry"/>
                </mxCell>
                <mxCell id="4" value="Login.js&lt;br&gt;&lt;br&gt;axiosWithAuth()" style="ellipse;whiteSpace=wrap;html=1;aspect=fixed;" vertex="1" parent="1">
                    <mxGeometry x="240" y="220" width="110" height="110" as="geometry"/>
                </mxCell>
                <mxCell id="6" value="Link Public" style="endArrow=classic;html=1;exitX=-0.007;exitY=0.571;exitDx=0;exitDy=0;exitPerimeter=0;" edge="1" parent="1" source="2" target="4">
                    <mxGeometry width="50" height="50" relative="1" as="geometry">
                        <mxPoint x="360" y="160" as="sourcePoint"/>
                        <mxPoint x="320" y="210" as="targetPoint"/>
                        <Array as="points">
                            <mxPoint x="323" y="200"/>
                        </Array>
                    </mxGeometry>
                </mxCell>
                <mxCell id="10" value="Link/Public" style="endArrow=classic;html=1;entryX=0.273;entryY=0.055;entryDx=0;entryDy=0;entryPerimeter=0;exitX=1;exitY=0.571;exitDx=0;exitDy=0;exitPerimeter=0;" edge="1" parent="1" source="2" target="3">
                    <mxGeometry width="50" height="50" relative="1" as="geometry">
                        <mxPoint x="520" y="150" as="sourcePoint"/>
                        <mxPoint x="330" y="220" as="targetPoint"/>
                        <Array as="points">
                            <mxPoint x="570" y="180"/>
                        </Array>
                    </mxGeometry>
                </mxCell>
            </root>
        </mxGraphModel>
    </diagram>
</mxfile>